# AST/ASF file generated using VICON BodyLanguage
# -----------------------------------------------
:version 1.10
:name VICON
:units
  mass 1.0
  length 0.45
  angle deg
:documentation
   .ast/.asf automatically generated from VICON data using
   VICON BodyBuilder and BodyLanguage model FoxedUp or BRILLIANT.MOD
:root
   order TX TY TZ RX RY RZ
   axis XYZ
   position 0 0 0  
   orientation 0 0 0 
:bonedata
  begin
     id 1 
     name lhipjoint
     direction 0.541323 -0.757556 0.364798 
     length 2.47576 
     axis 0 0 0  XYZ
  end
  begin
     id 2 
     name lfemur
     direction 0.34202 -0.939693 0  
     length 7.46493  
     axis 0 0 20  XYZ
    dof rx ry rz
    limits (-160.0 20.0)
           (-70.0 70.0)
           (-60.0 70.0)
  end
  begin
     id 3 
     name ltibia
     direction 0.34202 -0.939693 0   
     length 7.73805   
     axis 0 0 20   XYZ
    dof rx
    limits (-10.0 170.0)
  end
  begin
     id 4 
     name lfoot
     direction 0.107174 -0.294458 0.949636   
     length 2.25864   
     axis -90 7.62852e-016 20   XYZ
    dof rx rz
    limits (-45.0 90.0)
           (-70.0 20.0)
  end
  begin
     id 5 
     name ltoes
     direction 1.53606e-011 -4.21934e-011 1   
     length 1.12451   
     axis -90 7.62852e-016 20   XYZ
    dof rx
    limits (-90.0 20.0)
  end
  begin
     id 6 
     name rhipjoint
     direction -0.524745 -0.766967 0.36933   
     length 2.44538  
     axis 0 0 0  XYZ 
  end
  begin
     id 7 
     name rfemur
     direction -0.34202 -0.939693 0   
     length 7.61604   
     axis 0 0 -20   XYZ
    dof rx ry rz
    limits (-160.0 20.0)
           (-70.0 70.0)
           (-70.0 60.0)
  end
  begin
     id 8 
     name rtibia
     direction -0.34202 -0.939693 0   
     length 7.61056   
     axis 0 0 -20   XYZ
    dof rx
    limits (-10.0 170.0)
 end
 begin
     id 9 
     name rfoot
     direction -0.12616 -0.346623 0.929482   
     length 2.46372  
     axis -90 -7.62852e-016 -20   XYZ
    dof rx rz
    limits (-45.0 90.0)
           (-20.0 70.0)
  end
  begin
     id 10 
     name rtoes
     direction -1.53531e-011 -4.22004e-011 1   
     length 1.21611   
     axis -90 -7.62852e-016 -20   XYZ
    dof rx
    limits (-90.0 20.0)
  end
  begin
     id 11 
     name lowerback
     direction -0.000778023 0.997293 -0.0735223   
     length 2.06139   
     axis 0 0 0   XYZ
    dof rx ry rz
    limits (-20.0 45.0)
           (-30.0 30.0)
           (-30.0 30.0)
  end
  begin
     id 12 
     name upperback
     direction 0.0222598 0.999722 -0.0078355   
     length 2.06383   
     axis 0 0 0   XYZ
    dof rx ry rz
    limits (-20.0 45.0)
           (-30.0 30.0)
           (-30.0 30.0)
  end
  begin
     id 13 
     name thorax
     direction 0.0219654 0.999405 0.0265994   
     length 2.07163   
     axis 0 0 0   XYZ
    dof rx ry rz
    limits (-20.0 45.0)
           (-30.0 30.0)
           (-30.0 30.0)
  end
  begin
     id 14 
     name lowerneck
     direction 0.0213282 0.988147 0.15202   
     length 1.75969   
     axis 0 0 0   XYZ
    dof rx ry rz
    limits (-20.0 45.0)
           (-30.0 30.0)
           (-30.0 30.0)
  end
  begin
     id 15 
     name upperneck
     direction -0.0546456 0.982624 -0.177379   
     length 1.79244   
     axis 0 0 0   XYZ
    dof rx ry rz
    limits (-20.0 45.0)
           (-30.0 30.0)
           (-30.0 30.0)
  end
  begin
     id 16
     name head
     direction -0.0199987 0.996855 -0.076686  
     length 1.80555  
     axis 0 0 0   XYZ
    dof rx ry rz
    limits (-20.0 45.0)
           (-30.0 30.0)
           (-30.0 30.0)
  end
  begin
     id 17 
     name lclavicle
     direction 0.929565 0.363219 -0.063096  
     length 3.55722  
     axis 0 0 0   XYZ
    dof ry rz
    limits (-20.0 10.0)
           (0.0 20.0)
  end
  begin
     id 18 
     name lhumerus
     direction 1 -4.48993e-011 -2.36203e-027   
     length 4.92785   
     axis 180 -30 -90   XYZ
    dof rx ry rz
    limits (-60.0 90.0)
           (-90.0 90.0)
           (-90.0 90.0)
  end
  begin
     id 19
     name lradius
     direction 1 -4.48947e-011 2.02997e-027   
     length 3.44052   
     axis 180 -30 -90   XYZ
    dof rx
    limits (-10.0 170.0)
  end
  begin
     id 20
     name lwrist
     direction 1 -4.48962e-011 1.45991e-027   
     length 1.72026   
     axis 1.49639e-024 90 90   XYZ
    dof ry
    limits (-180.0 0.0)
 end
  begin
     id 21 
     name lhand
     direction 1 -4.48984e-011 2.91906e-027   
     length 0.654326   
     axis -1.863e-015 90 90   XYZ
    dof rx rz
    limits (-90.0 90.0)
           (-45.0 45.0)
  end
  begin
     id 22 
     name lfingers
     direction 1 -4.48961e-011 5.83968e-027   
     length 0.527534   
     axis -3.72598e-015 90 90   XYZ
    dof rx
    limits (0.0 90.0)
  end
  begin
     id 23
     name lthumb
     direction 0.707107 -6.34963e-011 0.707107   
     length 0.757437   
     axis -90 45 -6.68868e-015   XYZ
    dof rx rz
    limits (-45.0 45.0)
           (-45.0 45.0)
  end
  begin
     id 24 
     name rclavicle
     direction -0.902944 0.422599 -0.0781198   
     length 3.54432  
     axis 0 0 0   XYZ 
    dof ry rz
    limits (-10.0 20.0)
           (-20.0 0.0)
  end
  begin
     id 25 
     name rhumerus
     direction -1 -4.48953e-011 -4.75835e-028  
     length 5.09181   
     axis 180 30 90   XYZ
    dof rx ry rz
    limits (-90.0 60.0)
           (-90.0 90.0)
           (-90.0 90.0)
  end
  begin
     id 26 
     name rradius
     direction -1 -4.48986e-011 -3.25889e-027   
     length 3.49865   
     axis 180 30 90   XYZ
    dof rx
    limits (-10.0 170.0)
  end
  begin
     id 27 
     name rwrist
     direction -1 -4.48963e-011 1.45989e-027   
     length 1.74933   
     axis 1.49639e-024 -90 -90   XYZ
    dof ry
    limits (-180.0 0.0)
  end
  begin
     id 28
     name rhand
     direction -1 -4.49003e-011 2.91844e-027   
     length 0.66641   
     axis -1.863e-015 -90 -90   XYZ
    dof rx rz
    limits (-90.0 90.0)
           (-45.0 45.0)
  end
  begin
     id 29
     name rfingers
     direction -1 -4.48973e-011 5.83886e-027   
     length 0.537277   
     axis -3.72598e-015 -90 -90   XYZ
    dof rx
    limits (0.0 90.0)
  end
  begin
     id 30
     name rthumb
     direction -0.707107 -6.34976e-011 0.707107   
     length 0.771425   
     axis -90 -45 6.68868e-015   XYZ
    dof rx rz
    limits (-45.0 45.0)
           (-45.0 45.0)
  end
:hierarchy
  begin
    root lhipjoint rhipjoint lowerback
    lhipjoint lfemur
    lfemur ltibia
    ltibia lfoot
    lfoot ltoes
    rhipjoint rfemur
    rfemur rtibia
    rtibia rfoot
    rfoot rtoes
    lowerback upperback
    upperback thorax
    thorax lowerneck lclavicle rclavicle
    lowerneck upperneck
    upperneck head
    lclavicle lhumerus
    lhumerus lradius
    lradius lwrist
    lwrist lhand lthumb
    lhand lfingers
    rclavicle rhumerus
    rhumerus rradius
    rradius rwrist
    rwrist rhand rthumb
    rhand rfingers
  end

#!OML:ASF H:\LiuWeirdWalks\Patient Classification 1\Patient 1\Session 1\male.ASF
:FULLY-SPECIFIED
:DEGREES
95
root -0.612907 17.5582 -28.1915 5.75337 3.37649 -0.578211
lowerback 2.57041 -1.11369 -1.23921
upperback -2.38861 -1.43487 3.05683
thorax -3.79717 -0.635957 3.94066
lowerneck -21.47 1.8793 6.6502
upperneck 24.1319 2.48929 -7.50588
head 11.6241 0.763669 -3.51423
rclavicle 2.27608e-014 -2.3059e-014
rhumerus -35.5501 -9.48719 -77.5134
rradius 23.3653
rwrist -2.32042
rhand -15.3673 -2.65327
rfingers 7.12502
rthumb 10.8105 -32.3551
lclavicle 2.27608e-014 -2.3059e-014
lhumerus -37.3451 4.57087 84.5401
lradius 28.4302
lwrist 8.87242
lhand -11.5109 0.34695
lfingers 7.12502
lthumb 14.5283 29.8182
rfemur -11.4473 -1.38641 23.0679
rtibia 34.9407
rfoot -29.0736 -20.4644
rtoes -6.71622
lfemur -14.5563 0.648803 -16.1968
ltibia 38.6205
lfoot -17.9137 17.3848
ltoes -10.5631
96
root -0.625481 17.5472 -28.158 5.7246 3.51772 -0.861651
lowerback 2.82764 -0.901092 -0.770115
upperback -2.34394 -1.13392 2.89973
thorax -3.93049 -0.499513 3.50037
lowerneck -21.469 1.48135 6.50517
upperneck 24.0224 1.85945 -7.12596
head 11.5214 0.515281 -3.44333
rclavicle 2.65378e-014 -2.94201e-014
rhumerus -35.8011 -10.2402 -77.4738
rradius 23.4191
rwrist -2.30312
rhand -15.3354 -2.70054
rfingers 7.12502
rthumb 10.8412 -32.4007
lclavicle 2.65378e-014 -2.94201e-014
lhumerus -37.2075 3.68396 84.596
lradius 28.5152
lwrist 9.00887
lhand -11.5381 0.332188
lfingers 7.12502
lthumb 14.5021 29.8054
rfemur -11.183 -1.59466 23.4298
rtibia 34.7212
rfoot -29.1146 -20.4813
rtoes -6.88929
lfemur -15.3391 0.778884 -15.8342
ltibia 40.235
lfoot -17.763 17.3332
ltoes -11.0841
97
root -0.637784 17.5371 -28.1239 5.69522 3.67135 -1.14301
lowerback 3.09229 -0.899084 -0.407663
upperback -2.29684 -1.10972 2.96277
thorax -4.03854 -0.495702 3.36522
lowerneck -21.4907 1.4671 6.46451
upperneck 23.894 1.8468 -7.12715
head 11.4754 0.504895 -3.43516
rclavicle -4.99446e-015 -2.06736e-014
rhumerus -35.8178 -10.183 -77.4814
rradius 23.3955
rwrist -2.36825
rhand -15.3049 -2.72699
rfingers 7.12502
rthumb 10.8707 -32.4256
lclavicle -4.99446e-015 -2.06736e-014
lhumerus -37.1966 3.6357 84.6257
lradius 28.6381
lwrist 9.04417
lhand -11.5884 0.299547
lfingers 7.12502
lthumb 14.4536 29.7762
rfemur -10.9118 -1.79804 23.7919
rtibia 34.488
rfoot -29.1393 -20.5282
rtoes -7.07398
lfemur -16.1954 0.898617 -15.4729
ltibia 41.9354
lfoot -17.5609 17.2626
ltoes -11.7133
98
root -0.649807 17.5285 -28.0891 5.67415 3.84108 -1.40558
lowerback 3.36455 -0.901489 -0.0780812
upperback -2.23952 -1.09061 3.03747
thorax -4.13918 -0.493681 3.26108
lowerneck -21.5729 1.45677 6.41373
upperneck 23.7912 1.84647 -7.14813
head 11.4521 0.495749 -3.4321
rclavicle -1.05604e-014 -7.95139e-015
rhumerus -35.7925 -10.1215 -77.4666
rradius 23.3446
rwrist -2.41498
rhand -15.2879 -2.74801
rfingers 7.12502
rthumb 10.8871 -32.4458
lclavicle -1.05604e-014 -7.95139e-015
lhumerus -37.1564 3.62879 84.6732
lradius 28.7717
lwrist 9.0919
lhand -11.6266 0.316358
lfingers 7.12502
lthumb 14.4168 29.7956
rfemur -10.6428 -2.00483 24.1359
rtibia 34.2471
rfoot -29.1585 -20.591
rtoes -7.25384
lfemur -17.1204 0.997104 -15.1341
ltibia 43.6911
lfoot -17.3301 17.1773
ltoes -12.4345
99
root -0.661346 17.5211 -28.054 5.67893 3.99543 -1.6522
lowerback 3.62664 -0.893997 0.227841
upperback -2.17645 -1.05774 3.11552
thorax -4.2283 -0.484366 3.17249
lowerneck -21.7198 1.43834 6.33737
upperneck 23.7405 1.84142 -7.16582
head 11.4604 0.481695 -3.42636
rclavicle 1.36664e-014 -1.66979e-014
rhumerus -35.7295 -10.0868 -77.431
rradius 23.2666
rwrist -2.42947
rhand -15.2858 -2.72707
rfingers 7.12502
rthumb 10.8891 -32.4247
lclavicle 1.36664e-014 -1.66979e-014
lhumerus -37.0707 3.64549 84.733
lradius 28.891
lwrist 9.1536
lhand -11.651 0.365483
lfingers 7.12502
lthumb 14.3933 29.8464
rfemur -10.4025 -2.20097 24.461
rtibia 33.9997
rfoot -29.1597 -20.6612
rtoes -7.4335
lfemur -18.1293 1.10766 -14.8224
ltibia 45.4712
lfoot -17.0643 17.113
ltoes -13.2315
